# xmcd CD database file
#
# Track frame offsets:
#	150
#	14262
#	29694
#	50696
#	74707
#	94915
#	116652
#	127692
#	142934
#	160611
#	178459
#	196595
#	218651
#	230127
#	247050
#	259063
#	284740
#	305901
#
# Disc length: 4624 seconds
#
# Revision: 0
# Processed by: cddbd v1.5.2PL0 Copyright (c) Steve Scherf et al.
# Submitted via: CDex 1.51
#
DISCID=17120e12
DTITLE=Asher Quinn - Forgotten Language Of The Heart [CD2)
DYEAR=2009
DGENRE=New Age
TTITLE0=Morning Sun (live)
TTITLE1=Golden Brown
TTITLE2=Love Call
TTITLE3=Missa Greca
TTITLE4=Greensleeves
TTITLE5=Sacred Heart
TTITLE6=The Marriage Of The Sun And Moon
TTITLE7=Silent Night
TTITLE8=Have Mercy On Me (live)
TTITLE9=This Love
TTITLE10=Copper Kettle
TTITLE11=Prayer For The World
TTITLE12=Please Let Me Get What I Want
TTITLE13=Forgiveness (live)
TTITLE14=Down In The Willow Garden
TTITLE15=Sailing On The Silk Blue Sea
TTITLE16=Amazing Grace
TTITLE17=Return To Your Soul
EXTD=YEAR: 2009
EXTT0=
EXTT1=
EXTT2=
EXTT3=
EXTT4=
EXTT5=
EXTT6=
EXTT7=
EXTT8=
EXTT9=
EXTT10=
EXTT11=
EXTT12=
EXTT13=
EXTT14=
EXTT15=
EXTT16=
EXTT17=
PLAYORDER=
